<svg width="218" height="46" viewBox="0 0 218 46" fill="none" xmlns="http://www.w3.org/2000/svg">
<g clip-path="url(#clip0_234_1610)">
<path d="M128.691 12.85V30.85C128.691 36.35 124.691 39.85 118.691 39.85C112.691 39.85 108.691 36.35 108.691 30.85V12.85C108.691 7.35001 112.691 3.85001 118.691 3.85001C124.691 3.85001 128.691 7.35001 128.691 12.85ZM119.691 13.35C119.691 12.8 119.241 12.35 118.691 12.35C118.141 12.35 117.691 12.8 117.691 13.35V30.35C117.691 30.9 118.141 31.35 118.691 31.35C119.241 31.35 119.691 30.9 119.691 30.35V13.35Z" fill="#161613"/>
<path d="M129.941 4.35001H138.691L141.941 21.85V4.35001H150.941V39.35H142.691L138.941 19.15V39.35H129.941V4.35001Z" fill="#161613"/>
<path d="M158.941 4.35001H167.941V39.35H158.941V4.35001Z" fill="#161613"/>
<path d="M186.691 4.35001V12.85H182.191V39.35H173.191V12.85H168.691V4.35001H186.691Z" fill="#161613"/>
<path d="M191.941 30.85C194.691 30.85 196.441 32.6 196.441 35.35C196.441 38.1 194.691 39.85 191.941 39.85C189.191 39.85 187.441 38.1 187.441 35.35C187.441 32.6 189.191 30.85 191.941 30.85Z" fill="#161613"/>
<path d="M202.441 30.85C205.191 30.85 206.941 32.6 206.941 35.35C206.941 38.1 205.191 39.85 202.441 39.85C199.691 39.85 197.941 38.1 197.941 35.35C197.941 32.6 199.691 30.85 202.441 30.85Z" fill="#161613"/>
<path d="M212.941 30.85C215.691 30.85 217.441 32.6 217.441 35.35C217.441 38.1 215.691 39.85 212.941 39.85C210.191 39.85 208.441 38.1 208.441 35.35C208.441 32.6 210.191 30.85 212.941 30.85Z" fill="#161613"/>
<path d="M102.952 32.67C102.522 30.31 99.8016 29.95 97.9016 30.54C90.3316 32.86 82.3716 34.56 74.4516 34.9C72.3716 34.99 69.6716 34.97 67.9716 33.57C65.5916 31.6 67.0316 27.85 67.1016 25.25C67.1916 22.24 66.5316 18.89 63.9416 17.01C60.8316 14.75 56.7016 15.46 53.5716 17.27C51.2416 18.61 49.3316 20.54 47.4916 22.5C47.9516 20.11 48.2816 17.69 48.4016 15.24C48.5516 12.11 48.8216 8.3 45.7616 6.44C42.8016 4.63 39.0316 5.92 36.4016 7.72C31.0316 11.4 26.9416 17.79 23.8316 23.4C20.6816 29.09 18.5616 35.29 17.3716 41.68C16.9416 43.97 19.3016 45.25 21.2716 45.04C23.5816 44.8 25.8116 43.03 26.2416 40.7C27.9516 31.53 32.0616 22.98 38.1816 15.94C38.5916 15.46 39.0216 14.97 39.4716 14.51C39.5116 15.1 39.5516 15.66 39.5516 15.79C39.5016 17.1 39.3916 18.4 39.2316 19.7C38.5516 25.18 36.9516 30.47 35.3216 35.73C33.9516 40.18 39.6116 41.37 42.2816 38.57C44.9716 35.75 47.6616 32.93 50.3516 30.11C51.6916 28.7 53.0316 27.28 54.3816 25.88C54.9716 25.26 56.1316 23.65 57.1016 23.37C57.1816 23.39 57.3416 23.43 57.4416 23.56C57.6516 23.82 57.8116 24.12 57.9316 24.43C58.4516 25.79 58.1716 27.33 58.0116 28.72C57.6416 31.92 57.4316 35.27 59.4016 38.02C63.0316 43.08 70.2716 42.93 75.8116 42.42C83.7316 41.68 91.5616 40.07 99.1616 37.74C101.182 37.12 103.382 34.96 102.962 32.68L102.952 32.67Z" fill="#161613"/>
<path d="M15.8784 14.16C17.2784 12.41 18.6184 10.95 19.4884 10.04C20.3584 9.12999 20.9684 7.94999 21.0384 6.69999C21.2284 3.36999 17.6884 4.21999 15.7084 4.95999C15.2684 5.10999 14.8384 5.28999 14.4184 5.49999C13.1984 6.11999 12.0884 6.97999 11.1884 7.87999C6.81838 12.29 4.22838 18.92 2.42838 24.64C0.598381 30.44 -0.161619 36.51 0.0283811 42.56C0.0983811 44.73 2.60838 45.43 4.44838 44.86C6.60838 44.18 8.35838 42.14 8.29838 39.93C8.13838 34.53 8.91838 29.16 10.5884 24.05C12.3684 18.83 15.7984 14.3 15.8884 14.17L15.8784 14.16Z" fill="#161613"/>
<path d="M26.9519 0.0499937C26.9519 0.0499937 23.2819 0.0499938 24.1919 2.80999C25.1019 5.56999 27.8619 6.47999 26.0319 9.23999C24.2019 12 28.7919 12 29.7019 5.56999C30.6119 -0.860006 26.9519 0.0499937 26.9519 0.0499937Z" fill="#161613"/>
</g>
<defs>
<clipPath id="clip0_234_1610">
<rect width="217.44" height="45.05" fill="white"/>
</clipPath>
</defs>
</svg>
