<svg viewBox="0 0 150 92" fill="none" xmlns="http://www.w3.org/2000/svg">
<path d="M138.766 51.8633H148.817V60.2394L145.467 79.2254H142.116L138.766 60.2394V51.8633ZM143.791 81.459C146.863 81.459 148.817 83.4134 148.817 86.4847C148.817 89.556 146.863 91.5104 143.791 91.5104C140.72 91.5104 138.766 89.556 138.766 86.4847C138.766 83.4134 140.72 81.459 143.791 81.459Z" fill="white"/>
<path d="M0 26.1206V14.4498C0 8.30734 4.46728 4.39848 11.1682 4.39848C17.8691 4.39848 22.3364 8.30734 22.3364 14.4498V28.4101H12.285V15.0083C12.285 14.394 11.7824 13.8914 11.1682 13.8914C10.5539 13.8914 10.0514 14.394 10.0514 15.0083V26.1206C10.0514 32.2631 22.3364 29.862 22.3364 37.6797C22.3364 41.8678 19.5443 44.604 12.7876 44.604C7.59437 44.604 0 42.9287 0 42.9287V33.9942C0 33.9942 4.914 34.5526 9.82801 34.5526C12.6201 34.5526 12.8434 34.05 12.8434 33.7708C12.8434 31.6489 0 34.1617 0 26.1206Z" fill="white"/>
<path d="M35.1799 44.604C28.479 44.604 24.0117 40.6951 24.0117 34.5526V4.95689H34.0631V33.9942C34.0631 34.6084 34.5657 35.111 35.1799 35.111C35.7942 35.111 36.2967 34.6084 36.2967 33.9942V4.95689H46.3481V34.5526C46.3481 40.6951 41.8808 44.604 35.1799 44.604Z" fill="white"/>
<path d="M149.933 33.4581C149.408 30.5879 146.103 30.1523 143.791 30.8671C134.588 33.6815 124.916 35.7476 115.267 36.172C112.743 36.2837 109.449 36.2613 107.382 34.5526C104.479 32.1514 106.243 27.5948 106.333 24.4342C106.444 20.7822 105.64 16.7058 102.491 14.4163C98.7159 11.669 93.6902 12.5289 89.8707 14.7291C87.034 16.3596 84.711 18.7049 82.4773 21.0949C83.0357 18.18 83.4378 15.2428 83.583 12.2721C83.7617 8.4637 84.0967 3.8289 80.3665 1.56176C76.7592 -0.638379 72.1914 0.925168 68.9862 3.1253C62.4528 7.60375 57.4829 15.3656 53.7081 22.1894C49.8774 29.1137 47.2975 36.6411 45.8457 44.4141C45.3319 47.195 48.191 48.7585 50.5921 48.5017C53.4065 48.2113 56.1092 46.0558 56.6341 43.2191C58.7114 32.0733 63.7148 21.6757 71.1528 13.1097C71.6553 12.5289 72.1691 11.937 72.7163 11.3674C72.761 12.0822 72.8168 12.7746 72.8057 12.9198C72.7498 14.5057 72.6158 16.0916 72.4148 17.6775C71.5883 24.3449 69.6451 30.7777 67.6683 37.166C65.9931 42.5825 72.8839 44.0232 76.1338 40.6169L85.9506 30.331C87.5812 28.6111 89.2118 26.8912 90.8535 25.1825C91.5794 24.4342 92.9754 22.4686 94.1593 22.1336C94.2598 22.1559 94.4496 22.2117 94.5725 22.3681C94.8293 22.6808 95.0192 23.0494 95.1644 23.4291C95.801 25.082 95.4548 26.9582 95.2649 28.6446C94.8182 32.5312 94.5613 36.6075 96.9625 39.958C101.374 46.1117 110.186 45.933 116.909 45.3076C126.536 44.4141 136.062 42.4485 145.298 39.623C147.755 38.8747 150.425 36.2502 149.922 33.4693L149.933 33.4581Z" fill="white"/>
<path d="M45.5547 51.5729H55.6061V90.6616H45.5547V51.5729Z" fill="white"/>
<path d="M76.5481 51.5729V61.0659H71.5224V90.6616H61.471V61.0659H56.4453V51.5729H76.5481Z" fill="white"/>
<path d="M95.5198 91.22C88.8188 91.22 84.3516 87.3111 84.3516 81.1686V51.5729H94.4029V80.6102C94.4029 81.2245 94.9055 81.727 95.5198 81.727C96.134 81.727 96.6366 81.2245 96.6366 80.6102V51.5729H106.688V81.1686C106.688 87.3111 102.221 91.22 95.5198 91.22Z" fill="white"/>
<path d="M108.086 51.5729H120.371C127.072 51.5729 130.422 55.4818 130.422 61.6243V77.8182C130.422 81.2803 127.63 84.0724 124.168 84.0724C121.32 84.0724 118.919 82.2296 118.137 79.6609V90.6616H108.086V51.5729ZM118.137 61.0659V73.4626C118.137 74.0768 118.584 74.5794 119.254 74.5794C119.924 74.5794 120.371 74.0768 120.371 73.4626V62.1827C120.371 61.5685 119.868 61.0659 119.254 61.0659H118.137Z" fill="white"/>
</svg>
