<svg width="20" height="19" viewBox="0 0 20 19" fill="none" xmlns="http://www.w3.org/2000/svg">
<path d="M10.0919 12.1838L6.85852 15.2555C6.46705 15.6144 5.94424 15.815 5.40019 15.815C4.85614 15.815 4.33332 15.6144 3.94186 15.2555C3.74986 15.0738 3.59752 14.8579 3.49357 14.6201C3.38962 14.3824 3.33611 14.1275 3.33611 13.87C3.33611 13.6126 3.38962 13.3577 3.49357 13.1199C3.59752 12.8822 3.74986 12.6663 3.94186 12.4846L7.17519 9.41295C7.33211 9.26388 7.42027 9.06169 7.42027 8.85087C7.42027 8.64005 7.33211 8.43786 7.17519 8.28878C7.01827 8.13971 6.80544 8.05596 6.58352 8.05596C6.3616 8.05596 6.14878 8.13971 5.99186 8.28878L2.75852 11.3684C2.10715 12.0419 1.75487 12.9285 1.77525 13.8429C1.79563 14.7574 2.18709 15.629 2.86788 16.2757C3.54868 16.9225 4.46616 17.2944 5.42873 17.3137C6.3913 17.3331 7.32453 16.9984 8.03352 16.3796L11.2752 13.308C11.4321 13.1589 11.5203 12.9567 11.5203 12.7459C11.5203 12.535 11.4321 12.3329 11.2752 12.1838C11.1183 12.0347 10.9054 11.951 10.6835 11.951C10.4616 11.951 10.2488 12.0347 10.0919 12.1838V12.1838ZM17.2419 2.62045C16.5408 1.95862 15.5927 1.58716 14.6044 1.58716C13.616 1.58716 12.6679 1.95862 11.9669 2.62045L8.72519 5.69212C8.64749 5.76593 8.58586 5.85356 8.54381 5.95C8.50176 6.04645 8.48011 6.14981 8.48011 6.2542C8.48011 6.35859 8.50176 6.46196 8.54381 6.5584C8.58586 6.65484 8.64749 6.74247 8.72519 6.81628C8.80289 6.8901 8.89513 6.94865 8.99665 6.9886C9.09817 7.02855 9.20697 7.04911 9.31686 7.04911C9.42674 7.04911 9.53555 7.02855 9.63706 6.9886C9.73858 6.94865 9.83082 6.8901 9.90852 6.81628L13.1419 3.74462C13.5333 3.3857 14.0561 3.18511 14.6002 3.18511C15.1442 3.18511 15.6671 3.3857 16.0585 3.74462C16.2505 3.92629 16.4029 4.1422 16.5068 4.37995C16.6108 4.61769 16.6643 4.8726 16.6643 5.13003C16.6643 5.38747 16.6108 5.64238 16.5068 5.88012C16.4029 6.11787 16.2505 6.33377 16.0585 6.51545L12.8252 9.58712C12.7471 9.66071 12.6851 9.74827 12.6428 9.84474C12.6005 9.94122 12.5787 10.0447 12.5787 10.1492C12.5787 10.2537 12.6005 10.3572 12.6428 10.4537C12.6851 10.5501 12.7471 10.6377 12.8252 10.7113C12.9027 10.7855 12.9948 10.8444 13.0964 10.8846C13.1979 10.9248 13.3068 10.9455 13.4169 10.9455C13.5269 10.9455 13.6358 10.9248 13.7373 10.8846C13.8389 10.8444 13.9311 10.7855 14.0085 10.7113L17.2419 7.6317C17.9385 6.96574 18.3295 6.06497 18.3295 5.12608C18.3295 4.18718 17.9385 3.28642 17.2419 2.62045V2.62045ZM7.35852 12.0096C7.43639 12.083 7.52874 12.141 7.63027 12.1804C7.7318 12.2198 7.84052 12.2398 7.95019 12.2392C8.05986 12.2398 8.16858 12.2198 8.27011 12.1804C8.37164 12.141 8.46399 12.083 8.54186 12.0096L12.6419 8.11462C12.7988 7.96554 12.8869 7.76336 12.8869 7.55253C12.8869 7.34171 12.7988 7.13952 12.6419 6.99045C12.4849 6.84138 12.2721 6.75763 12.0502 6.75763C11.8283 6.75763 11.6154 6.84138 11.4585 6.99045L7.35852 10.8855C7.28042 10.959 7.21842 11.0466 7.17611 11.1431C7.13381 11.2395 7.11202 11.343 7.11202 11.4475C7.11202 11.552 7.13381 11.6555 7.17611 11.752C7.21842 11.8485 7.28042 11.936 7.35852 12.0096Z" fill="white"/>
</svg>
