<svg viewBox="0 0 146 126" fill="none" xmlns="http://www.w3.org/2000/svg">
<path d="M20.4416 83.3005C20.4416 83.3005 20.4416 94.4703 12.9902 96.2162C12.7637 96.2673 12.53 96.3112 12.2962 96.3477C12.2085 96.3623 12.1136 96.3769 12.0259 96.3842C11.6753 96.4208 11.3246 96.45 10.952 96.45C4.37733 96.45 1.45523 89.8753 1.45523 89.8753C1.45523 89.8753 -5.85001 109.599 20.4489 109.599H53.3225V89.8753H27.0163L20.4416 83.3005Z" fill="#161613"/>
<path d="M144.633 89.8753C144.633 89.8753 141.711 96.45 135.137 96.45C134.764 96.45 134.406 96.4208 134.063 96.3842C133.968 96.3769 133.88 96.3623 133.792 96.3477C133.551 96.3112 133.325 96.2673 133.098 96.2162C125.654 94.4703 125.647 83.3005 125.647 83.3005L119.072 89.8753H92.7734V109.599H125.647C151.946 109.599 144.641 89.8753 144.641 89.8753H144.633Z" fill="#161613"/>
<path d="M73.0431 17.5534C73.0431 17.5534 66.483 37.2264 20.6279 37.2775C20.5111 38.4829 20.4453 39.6956 20.4453 40.9301V87.6837C20.4453 99.7885 30.2563 109.599 42.361 109.599H56.7012C58.7467 109.599 60.7045 110.41 62.1509 111.857L73.0431 122.749C77.8937 127.6 86.1925 124.166 86.1925 117.299C86.1925 113.047 89.6406 109.599 93.8922 109.599H103.725C115.83 109.599 125.641 99.7885 125.641 87.6837V40.9301C125.641 39.6956 125.575 38.4756 125.458 37.2775C79.6032 37.2264 73.0431 17.5534 73.0431 17.5534Z" fill="#F9D907"/>
<path d="M89.1116 4.40393H56.9686C38.0261 4.40393 22.4586 18.8172 20.625 37.2775C66.48 37.2264 73.0401 17.5534 73.0401 17.5534C73.0401 17.5534 79.6002 37.2264 125.455 37.2775C123.622 18.8172 108.054 4.40393 89.1116 4.40393Z" fill="#161613"/>
<path d="M129.842 44.5462V37.2994C129.901 27.357 126.066 17.999 119.06 10.9494C112.047 3.89987 102.711 0.0207825 92.7682 0.0207825H53.3199C43.3775 0.0207825 34.0414 3.89987 27.0283 10.9494C20.0153 17.999 16.1874 27.357 16.2458 37.2702V44.5462C11.0445 46.2995 7.29688 51.2086 7.29688 57.0017V70.1511C7.29688 77.4125 13.1849 83.3005 20.4463 83.3005C27.7077 83.3005 33.5957 77.4125 33.5957 70.1511V57.0017C33.5957 51.3474 30.0235 46.5406 25.0121 44.685V37.2556C24.9683 29.6655 27.8977 22.5209 33.2451 17.137C38.5925 11.753 45.7225 8.78707 53.3199 8.78707H92.7682C100.358 8.78707 107.488 11.753 112.843 17.137C118.198 22.5209 121.12 29.6655 121.076 37.2775V44.685C116.065 46.5406 112.492 51.3474 112.492 57.0017V70.1511C112.492 77.4125 118.38 83.3005 125.642 83.3005C132.903 83.3005 138.791 77.4125 138.791 70.1511V57.0017C138.791 51.2086 135.044 46.3068 129.842 44.5462Z" fill="#3A2ADC"/>
<path d="M53.3169 57.0017C56.948 57.0017 59.8916 54.0581 59.8916 50.427C59.8916 46.7958 56.948 43.8522 53.3169 43.8522C49.6858 43.8522 46.7422 46.7958 46.7422 50.427C46.7422 54.0581 49.6858 57.0017 53.3169 57.0017Z" fill="#161613"/>
<path d="M75.9653 57.0017C79.5965 57.0017 82.5401 54.0581 82.5401 50.427C82.5401 46.7958 79.5965 43.8522 75.9653 43.8522C72.3342 43.8522 69.3906 46.7958 69.3906 50.427C69.3906 54.0581 72.3342 57.0017 75.9653 57.0017Z" fill="#161613"/>
<path d="M66.4485 71.6998C63.4534 71.6998 60.8746 69.9758 59.7277 67.2071C58.5808 64.4384 59.1871 61.3994 61.3056 59.2809L65.1555 55.431L67.7415 58.0171L63.8917 61.867C62.8178 62.9408 62.5256 64.4165 63.11 65.8118C63.6871 67.2144 64.9436 68.0472 66.4558 68.0472V71.6998H66.4485Z" fill="#161613"/>
<path d="M61.3516 77.4564H74.501C74.501 77.4564 74.501 84.0311 67.9263 84.0311C61.3516 84.0311 61.3516 77.4564 61.3516 77.4564Z" fill="#161613"/>
</svg>