<svg viewBox="-33 0 146 126" fill="none" xmlns="http://www.w3.org/2000/svg">
<path d="M79.985 25.7695L74.4108 20.1953C71.9301 17.7146 67.686 19.4705 67.686 22.9824C67.686 25.1568 65.9226 26.9202 63.7482 26.9202H0.4375V100.894C0.4375 104.607 3.44874 107.618 7.16235 107.618C10.876 107.618 13.8872 110.63 13.8872 114.343V118.281C13.8872 124.274 21.1276 127.27 25.3643 123.033L38.814 109.584C40.0768 108.321 41.7879 107.611 43.5662 107.611H70.6673C91.2977 107.611 108.028 90.881 108.028 70.2506V37.3811C108.028 33.7496 107.497 30.2378 106.533 26.9202H82.7646C81.7185 26.9202 80.7173 26.5017 79.9775 25.7695H79.985Z" fill="#F4633A"/>
<path d="M70.6748 0.0207825H22.8537C10.4725 0.0207825 0.4375 10.0558 0.4375 22.4369V26.9202H63.7482C65.9226 26.9202 67.686 25.1568 67.686 22.9824C67.686 19.4705 71.9301 17.7146 74.4108 20.1953L79.985 25.7695C80.7247 26.5092 81.726 26.9202 82.7721 26.9202H106.541C102.013 11.3783 87.6737 0.0207825 70.6748 0.0207825Z" fill="#161613"/>
<path d="M60.5208 68.6516C52.0774 68.6516 45.2031 61.7773 45.2031 53.3339C45.2031 44.8905 52.0774 38.0162 60.5208 38.0162C68.9643 38.0162 75.8386 44.8905 75.8386 53.3339C75.8386 61.7773 68.9643 68.6516 60.5208 68.6516ZM60.5208 41.7522C54.1322 41.7522 48.9392 46.9453 48.9392 53.3339C48.9392 59.7225 54.1322 64.9156 60.5208 64.9156C66.9094 64.9156 72.1025 59.7225 72.1025 53.3339C72.1025 46.9453 66.9094 41.7522 60.5208 41.7522Z" fill="#3A2ADC"/>
<path d="M60.5173 57.0699C62.5806 57.0699 64.2533 55.3972 64.2533 53.3339C64.2533 51.2705 62.5806 49.5979 60.5173 49.5979C58.4539 49.5979 56.7812 51.2705 56.7812 53.3339C56.7812 55.3972 58.4539 57.0699 60.5173 57.0699Z" fill="#161613"/>
<path d="M94.888 68.6516C86.4446 68.6516 79.5703 61.7773 79.5703 53.3339C79.5703 44.8905 86.4446 38.0162 94.888 38.0162C103.331 38.0162 110.206 44.8905 110.206 53.3339C110.206 61.7773 103.331 68.6516 94.888 68.6516ZM94.888 41.7522C88.4994 41.7522 83.3063 46.9453 83.3063 53.3339C83.3063 59.7225 88.4994 64.9156 94.888 64.9156C101.277 64.9156 106.47 59.7225 106.47 53.3339C106.47 46.9453 101.277 41.7522 94.888 41.7522Z" fill="#3A2ADC"/>
<path d="M94.8923 57.0699C96.9556 57.0699 98.6283 55.3972 98.6283 53.3339C98.6283 51.2705 96.9556 49.5979 94.8923 49.5979C92.8289 49.5979 91.1562 51.2705 91.1562 53.3339C91.1562 55.3972 92.8289 57.0699 94.8923 57.0699Z" fill="#161613"/>
<path d="M76.1354 74.5246V70.7886C77.6821 70.7886 78.9673 69.9368 79.5576 68.5022C80.1479 67.0675 79.849 65.5656 78.7581 64.4673L74.8203 60.5295L77.4654 57.8844L81.4032 61.8221C83.5701 63.989 84.1903 67.0974 83.0172 69.9293C81.844 72.7612 79.2139 74.5246 76.1429 74.5246H76.1354Z" fill="#161613"/>
<path d="M81.1324 51.7349H74.2656V55.4709H81.1324V51.7349Z" fill="#3A2ADC"/>
<path d="M78.1437 87.0702C80.0007 87.0702 81.5061 85.5648 81.5061 83.7078C81.5061 81.8508 80.0007 80.3454 78.1437 80.3454C76.2867 80.3454 74.7812 81.8508 74.7812 83.7078C74.7812 85.5648 76.2867 87.0702 78.1437 87.0702Z" fill="#161613"/>
<path d="M110.647 43.3587C109.997 43.3587 109.369 43.0225 109.025 42.4172C103.795 33.264 93.6029 35.4458 93.4983 35.4682C92.4895 35.6998 91.4883 35.0647 91.2641 34.056C91.04 33.0473 91.6676 32.046 92.6763 31.8219C97.1521 30.8131 107 31.3362 112.268 40.5642C112.776 41.4608 112.47 42.604 111.573 43.1121C111.282 43.2765 110.96 43.3587 110.647 43.3587Z" fill="#161613"/>
<path d="M44.526 43.3587C44.2122 43.3587 43.8909 43.2765 43.5995 43.1121C42.7028 42.5965 42.389 41.4608 42.9046 40.5641C48.1724 31.3436 58.028 30.8131 62.4963 31.8218C63.505 32.046 64.1327 33.0473 63.9085 34.056C63.6844 35.0572 62.6831 35.6924 61.6819 35.4682C61.2634 35.3785 51.348 33.3237 46.1475 42.4172C45.8037 43.0225 45.1686 43.3587 44.526 43.3587Z" fill="#161613"/>
<path d="M65.4453 100.796V111.07C65.4453 112.393 66.8351 113.252 68.0232 112.662L78.2972 107.529C79.6123 106.871 79.6123 105.003 78.2972 104.346L68.0232 99.2123C66.8426 98.622 65.4453 99.4813 65.4453 100.804V100.796Z" fill="#161613"/>
<path d="M92.3461 100.796V111.07C92.3461 112.393 90.9563 113.252 89.7682 112.662L79.4941 107.529C78.179 106.871 78.179 105.003 79.4941 104.346L89.7682 99.2123C90.9488 98.622 92.3461 99.4813 92.3461 100.804V100.796Z" fill="#161613"/>
</svg>
