<svg width="68" height="16" viewBox="0 0 68 16" fill="none" xmlns="http://www.w3.org/2000/svg">
<path d="M27.2871 11.4004V13H22.2764V11.4004H27.2871ZM22.9395 3.04688V13H20.8887V3.04688H22.9395ZM32.5508 11.2295V5.60352H34.5195V13H32.667L32.5508 11.2295ZM32.7695 9.71191L33.3506 9.69824C33.3506 10.1904 33.2936 10.6484 33.1797 11.0723C33.0658 11.4915 32.8949 11.8561 32.667 12.166C32.4391 12.4714 32.152 12.7106 31.8057 12.8838C31.4593 13.0524 31.0514 13.1367 30.582 13.1367C30.222 13.1367 29.8893 13.0866 29.584 12.9863C29.2832 12.8815 29.0234 12.7197 28.8047 12.501C28.5905 12.2777 28.4219 11.9928 28.2988 11.6465C28.1803 11.2956 28.1211 10.874 28.1211 10.3818V5.60352H30.0898V10.3955C30.0898 10.6143 30.1149 10.7988 30.165 10.9492C30.2197 11.0996 30.2949 11.2227 30.3906 11.3184C30.4863 11.4141 30.598 11.4824 30.7256 11.5234C30.8577 11.5645 31.0036 11.585 31.1631 11.585C31.5687 11.585 31.8877 11.5029 32.1201 11.3389C32.3571 11.1748 32.5234 10.9515 32.6191 10.6689C32.7194 10.3818 32.7695 10.0628 32.7695 9.71191ZM37.9922 7.13477V13H36.0166V5.60352H37.8691L37.9922 7.13477ZM37.7188 9.04199H37.1719C37.1719 8.52702 37.2334 8.05306 37.3564 7.62012C37.484 7.18262 37.6686 6.80436 37.9102 6.48535C38.1562 6.16178 38.4593 5.91113 38.8193 5.7334C39.1794 5.55566 39.5964 5.4668 40.0703 5.4668C40.3984 5.4668 40.6992 5.51693 40.9727 5.61719C41.2461 5.71289 41.4808 5.86556 41.6768 6.0752C41.8773 6.28027 42.0322 6.54915 42.1416 6.88184C42.251 7.20996 42.3057 7.60417 42.3057 8.06445V13H40.3369V8.2832C40.3369 7.94596 40.2913 7.6862 40.2002 7.50391C40.109 7.32161 39.9792 7.19401 39.8105 7.12109C39.6465 7.04818 39.4482 7.01172 39.2158 7.01172C38.9606 7.01172 38.7373 7.06413 38.5459 7.16895C38.359 7.27376 38.2041 7.4196 38.0811 7.60645C37.958 7.78874 37.8669 8.00293 37.8076 8.24902C37.7484 8.49512 37.7188 8.75944 37.7188 9.04199ZM42.1211 8.81641L41.417 8.90527C41.417 8.4222 41.4762 7.97331 41.5947 7.55859C41.7178 7.14388 41.8978 6.7793 42.1348 6.46484C42.3763 6.15039 42.6748 5.90658 43.0303 5.7334C43.3857 5.55566 43.7959 5.4668 44.2607 5.4668C44.6162 5.4668 44.9398 5.51921 45.2314 5.62402C45.5231 5.72428 45.7715 5.88607 45.9766 6.10938C46.1862 6.32812 46.3457 6.61523 46.4551 6.9707C46.569 7.32617 46.626 7.76139 46.626 8.27637V13H44.6504V8.27637C44.6504 7.93457 44.6048 7.6748 44.5137 7.49707C44.4271 7.31478 44.2995 7.18945 44.1309 7.12109C43.9668 7.04818 43.7708 7.01172 43.543 7.01172C43.306 7.01172 43.0986 7.05957 42.9209 7.15527C42.7432 7.24642 42.5951 7.37402 42.4766 7.53809C42.3581 7.70215 42.2692 7.89355 42.21 8.1123C42.1507 8.3265 42.1211 8.5612 42.1211 8.81641ZM48.1504 2.5H50.1191V11.3047L49.9209 13H48.1504V2.5ZM54.8018 9.22656V9.37012C54.8018 9.92155 54.7425 10.4274 54.624 10.8877C54.5101 11.348 54.3324 11.7467 54.0908 12.084C53.8493 12.4167 53.5485 12.6764 53.1885 12.8633C52.833 13.0456 52.4137 13.1367 51.9307 13.1367C51.4795 13.1367 51.0876 13.0456 50.7549 12.8633C50.4268 12.681 50.151 12.4235 49.9277 12.0908C49.7044 11.7581 49.5244 11.3685 49.3877 10.9219C49.251 10.4753 49.1484 9.98763 49.0801 9.45898V9.14453C49.1484 8.61589 49.251 8.12826 49.3877 7.68164C49.5244 7.23503 49.7044 6.84538 49.9277 6.5127C50.151 6.18001 50.4268 5.92253 50.7549 5.74023C51.083 5.55794 51.4704 5.4668 51.917 5.4668C52.4046 5.4668 52.8285 5.56022 53.1885 5.74707C53.5531 5.92936 53.8538 6.18913 54.0908 6.52637C54.3324 6.85905 54.5101 7.25553 54.624 7.71582C54.7425 8.17155 54.8018 8.67513 54.8018 9.22656ZM52.833 9.37012V9.22656C52.833 8.92578 52.8102 8.64323 52.7646 8.37891C52.7236 8.11003 52.6507 7.87533 52.5459 7.6748C52.4411 7.46973 52.2975 7.30794 52.1152 7.18945C51.9375 7.07096 51.7074 7.01172 51.4248 7.01172C51.1559 7.01172 50.9281 7.05729 50.7412 7.14844C50.5544 7.23958 50.3994 7.36719 50.2764 7.53125C50.1579 7.69531 50.069 7.89128 50.0098 8.11914C49.9505 8.34245 49.9141 8.58854 49.9004 8.85742V9.75293C49.9141 10.113 49.9733 10.432 50.0781 10.71C50.1875 10.9834 50.3516 11.1999 50.5703 11.3594C50.7936 11.5143 51.083 11.5918 51.4385 11.5918C51.7165 11.5918 51.9466 11.5371 52.1289 11.4277C52.3112 11.3184 52.4525 11.1634 52.5527 10.9629C52.6576 10.7624 52.7305 10.5277 52.7715 10.2588C52.8125 9.98535 52.833 9.68913 52.833 9.37012ZM59.4297 13.1367C58.8555 13.1367 58.3405 13.0456 57.8848 12.8633C57.429 12.6764 57.0417 12.4189 56.7227 12.0908C56.4082 11.7627 56.1667 11.3822 55.998 10.9492C55.8294 10.5117 55.7451 10.0469 55.7451 9.55469V9.28125C55.7451 8.7207 55.8249 8.20801 55.9844 7.74316C56.1439 7.27832 56.3717 6.875 56.668 6.5332C56.9688 6.19141 57.3333 5.92936 57.7617 5.74707C58.1901 5.56022 58.6732 5.4668 59.2109 5.4668C59.735 5.4668 60.1999 5.55339 60.6055 5.72656C61.0111 5.89974 61.3506 6.14583 61.624 6.46484C61.902 6.78385 62.1117 7.16667 62.2529 7.61328C62.3942 8.05534 62.4648 8.54753 62.4648 9.08984V9.91016H56.5859V8.59766H60.5303V8.44727C60.5303 8.17383 60.4801 7.93001 60.3799 7.71582C60.2842 7.49707 60.1383 7.32389 59.9424 7.19629C59.7464 7.06868 59.4958 7.00488 59.1904 7.00488C58.9307 7.00488 58.7074 7.06185 58.5205 7.17578C58.3337 7.28971 58.181 7.44922 58.0625 7.6543C57.9486 7.85938 57.862 8.10091 57.8027 8.37891C57.748 8.65234 57.7207 8.95312 57.7207 9.28125V9.55469C57.7207 9.85091 57.7617 10.1243 57.8438 10.375C57.9303 10.6257 58.0511 10.8421 58.2061 11.0244C58.3656 11.2067 58.557 11.348 58.7803 11.4482C59.0081 11.5485 59.2656 11.5986 59.5527 11.5986C59.9082 11.5986 60.2386 11.5303 60.5439 11.3936C60.8538 11.2523 61.1204 11.0404 61.3438 10.7578L62.3008 11.7969C62.1458 12.0202 61.9339 12.2344 61.665 12.4395C61.4007 12.6445 61.0817 12.8132 60.708 12.9453C60.3343 13.0729 59.9082 13.1367 59.4297 13.1367ZM65.5547 7.2168V13H63.5859V5.60352H65.4385L65.5547 7.2168ZM67.7832 5.55566L67.749 7.38086C67.6533 7.36719 67.5371 7.35579 67.4004 7.34668C67.2682 7.33301 67.1475 7.32617 67.0381 7.32617C66.7601 7.32617 66.5186 7.36263 66.3135 7.43555C66.113 7.50391 65.9443 7.60645 65.8076 7.74316C65.6755 7.87988 65.5752 8.04622 65.5068 8.24219C65.443 8.43815 65.4066 8.66146 65.3975 8.91211L65.001 8.78906C65.001 8.31055 65.0488 7.87077 65.1445 7.46973C65.2402 7.06413 65.3792 6.71094 65.5615 6.41016C65.7484 6.10938 65.9762 5.87695 66.2451 5.71289C66.514 5.54883 66.8216 5.4668 67.168 5.4668C67.2773 5.4668 67.389 5.47591 67.5029 5.49414C67.6169 5.50781 67.7103 5.52832 67.7832 5.55566Z" fill="white"/>
<circle cx="7" cy="8" r="7" fill="#FFCC08"/>
</svg>
